<?xml version="1.0" encoding="utf-8"?>
<!-- Generator: Adobe Illustrator 21.0.0, SVG Export Plug-In . SVG Version: 6.00 Build 0)  -->
<svg version="1.1" id="Layer_1" xmlns="http://www.w3.org/2000/svg" xmlns:xlink="http://www.w3.org/1999/xlink" x="0px" y="0px"
	 viewBox="0 0 2096 651" style="enable-background:new 0 0 2096 651;" xml:space="preserve">
<style type="text/css">
	.st0{fill:#4A17C6;}
</style>
<g>
	<g>
		<path class="st0" d="M793.4,180.8c48.7,0,88.8,14.1,120.1,42.4c31.3,28.3,47,65,47,110.1c0,45.1-15.7,81.9-47,110.3
			c-31.3,28.4-71.4,42.6-120.1,42.6H685.9V180.8H793.4z M760.3,429.7h33.1c28.4,0,50.8-8.7,67-26.1c16.2-17.4,24.4-40.8,24.4-70.1
			c0-29.3-8.1-52.7-24.4-70.1c-16.2-17.4-38.6-26.1-67-26.1h-33.1V429.7z"/>
		<path class="st0" d="M1064.5,243.5v45.3c17.4-31.9,40.6-47.9,69.6-47.9v75.7h-18.3c-17.1,0-30,4.1-38.5,12.2
			c-8.6,8.1-12.8,22.3-12.8,42.6v114.9h-74.4V243.5H1064.5z"/>
		<path class="st0" d="M1189,454.5c-21.5-23.2-32.2-52.9-32.2-89.2c0-36.3,10.7-66.1,32.2-89.4c21.5-23.3,47.6-35,78.5-35
			s54.6,11.5,71.2,34.4v-31.8h74.4v242.8h-74.4v-35.3c-18,25.5-42.1,38.3-72.2,38.3C1236.3,489.3,1210.4,477.7,1189,454.5z
			 M1322.6,409.3c10.7-10.4,16.1-25.2,16.1-44.4c0-19.1-5.4-33.9-16.1-44.2c-10.7-10.3-23.1-15.4-37-15.4c-13.9,0-26.3,5.2-37,15.7
			c-10.7,10.4-16.1,25.2-16.1,44.4c0,19.1,5.4,33.9,16.1,44.2c10.7,10.3,23.1,15.4,37,15.4C1299.5,424.9,1311.8,419.7,1322.6,409.3z
			"/>
		<path class="st0" d="M1742.5,243.5h70.1l-72.7,242.8h-80.1l-33.9-143.6l-34.4,143.6h-80.1l-72.7-242.8h74.4l37.9,170.6l37.4-170.6
			h78.8l37.4,170.6L1742.5,243.5z"/>
		<path class="st0" d="M1910.5,181.5c0,6.2-2.1,11.5-6.3,15.9c-4.2,4.4-9.4,6.5-15.7,6.5c-6.2,0-11.5-2.2-15.9-6.5
			c-4.4-4.4-6.5-9.6-6.5-15.9c0-6.2,2.2-11.5,6.5-15.9c4.4-4.4,9.6-6.5,15.9-6.5c6.2,0,11.5,2.2,15.7,6.5
			C1908.4,169.9,1910.5,175.2,1910.5,181.5z M1872.6,486.3V248.7h30.5v237.6H1872.6z"/>
		<path class="st0" d="M2065.4,272.6h-65.7v157.5c0,11.9,2.3,20.2,7,25c4.6,4.8,12.9,7.2,24.8,7.2h33.9v23.9h-40.5
			c-37.1,0-55.7-18.7-55.7-56.1V272.6h-33.1v-23.9h33.1v-59.6h30.5v59.6h65.7V272.6z"/>
	</g>
	<path class="st0" d="M423.1,31.7v230.5l67.7,45.8c4.8,3.3,8.4,8.1,9.7,13.8c2,9.2-1.8,18.3-9.2,23.3l-68.2,46.1v230.4
		c0,5.5,4.4,9.9,9.9,9.9h91.3c5.5,0,9.9-4.4,9.9-9.9v-590c0-5.5-4.4-9.9-9.9-9.9h-91.3C427.5,21.8,423.1,26.2,423.1,31.7z"/>
	<path class="st0" d="M484.3,318.5L46,21.9c-1.7-1.1-8.7-1.3-10.2-0.5c-3.2,1.7-5.2,5.1-5.2,8.7v593.3c0,3.7,2,7,5.2,8.7
		c1.5,0.8,8.5,0.6,10.2-0.5l438.3-296.7c2.7-1.8,4.3-4.9,4.3-8.2C488.7,323.4,487,320.4,484.3,318.5z M302.6,326.7l-30.8,20.8
		l-132.7,89.8V216.1L302.6,326.7z"/>
</g>
</svg>
